<?xml version="1.0" encoding="UTF-8" standalone="no"?>
<!-- Created with Inkscape (http://www.inkscape.org/) -->
<svg id="svg3180" xmlns:rdf="http://www.w3.org/1999/02/22-rdf-syntax-ns#" xmlns="http://www.w3.org/2000/svg" height="16" width="16" version="1.0" xmlns:cc="http://creativecommons.org/ns#" xmlns:dc="http://purl.org/dc/elements/1.1/">
 <metadata id="metadata9">
  <rdf:RDF>
   <cc:Work rdf:about="">
    <dc:format>image/svg+xml</dc:format>
    <dc:type rdf:resource="http://purl.org/dc/dcmitype/StillImage"/>
   </cc:Work>
  </rdf:RDF>
 </metadata>
 <path id="path3171-2" d="m7.9453 3c-0.4123-0.0024-0.7653 0.0835-1.0117 0.2428-0.3179 0.2055-0.4581 0.2226-0.5469 0.0809-0.0849-0.1355-0.1713-0.1114-0.2461 0.0809-0.0632 0.1627-0.2046 0.2189-0.3554 0.1618-0.1438-0.0544-0.1937-0.0369-0.1368 0.054 0.054696 0.087302 0.027956 0.16183-0.054687 0.16183-0.082644 0-0.3382 0.28441-0.57422 0.62033-0.37623 0.53549-0.4376 0.78922-0.4375 1.9149 0.0000523 0.70629 0.053524 1.385-0.16406 1.4295-0.12761 0.02606-0.11546 0.51697-0.054687 1.0249 0.079476 0.66419 0.21642 0.98958 0.54688 1.2946 0.51471 0.47509 0.98438 1.3065 0.98438 1.7531-2e-7 0.63824-1.6484 1.7964-3.9648 2.805l-0.9297 0.378v0.998h14v-1.1597l-0.84766-0.35062c-1.9778-0.81194-3.7188-2.0477-3.7188-2.6701 0-0.44555 0.47018-1.2785 0.98438-1.7531 0.33045-0.30503 0.4674-0.63041 0.54688-1.2946 0.06077-0.50792 0.06899-0.98436-0.05469-1.0249-0.17041-0.055853-0.16406-0.72895-0.16406-1.4295 0-1.0041-0.06479-1.3868-0.32812-1.807-0.524-0.8367-2.2357-1.5035-3.4727-1.5108z" style="opacity:.3;fill-rule:evenodd"/>
 <path id="path3171" d="m7.9453 2c-0.4123-0.0024-0.7653 0.0835-1.0117 0.2428-0.3179 0.2055-0.4581 0.2226-0.5469 0.0809-0.0849-0.1355-0.1713-0.1114-0.2461 0.0809-0.0632 0.1626-0.2046 0.2189-0.3554 0.1618-0.1438-0.0544-0.1937-0.0369-0.1368 0.054 0.054696 0.087302 0.027956 0.16183-0.054687 0.16183-0.082644 0-0.3382 0.28441-0.57422 0.62033-0.37623 0.53549-0.4376 0.78922-0.4375 1.9149 0.0000523 0.70629 0.053524 1.385-0.16406 1.4295-0.12761 0.02606-0.11546 0.51697-0.054687 1.0249 0.079476 0.66419 0.21642 0.98958 0.54688 1.2946 0.51471 0.47509 0.98438 1.3065 0.98438 1.7531-2e-7 0.63824-1.6484 1.7964-3.9648 2.805l-0.9297 0.378v0.998h14v-1.1597l-0.84766-0.35062c-1.9778-0.81194-3.7188-2.0477-3.7188-2.6701 0-0.44555 0.47018-1.2785 0.98438-1.7531 0.33045-0.30503 0.4674-0.63041 0.54688-1.2946 0.06077-0.50792 0.06899-0.98436-0.05469-1.0249-0.17-0.0562-0.164-0.7293-0.164-1.4298 0-1.0041-0.065-1.3868-0.328-1.8071-0.524-0.8363-2.2357-1.5031-3.4727-1.5104z" style="fill-rule:evenodd;fill:#dfdbd2"/>
</svg>
