/* XPM */
static char * top_right_inactive_xpm[] = {
"5 29 4 1",
" 	c None",
".	c #222222",
"+	c #111111",
"@	c #131313",
"..   ",
"++.  ",
"+++. ",
"+++. ",
"+++@.",
"++++.",
"++++.",
"++++.",
"++++.",
"++++.",
"++++.",
"++++.",
"++++.",
"++++.",
"++++.",
"++++.",
"++++.",
"++++.",
"++++.",
"++++.",
"++++.",
"++++.",
"++++.",
"++++.",
"++++.",
"++++.",
"++++.",
"++++.",
"++++."};
