<?xml version="1.0" encoding="UTF-8" standalone="no"?>
<!-- Created with Inkscape (http://www.inkscape.org/) -->
<svg id="svg3201" xmlns:rdf="http://www.w3.org/1999/02/22-rdf-syntax-ns#" xmlns="http://www.w3.org/2000/svg" height="64" width="64" version="1.0" xmlns:cc="http://creativecommons.org/ns#" xmlns:dc="http://purl.org/dc/elements/1.1/">
 <metadata id="metadata9">
  <rdf:RDF>
   <cc:Work rdf:about="">
    <dc:format>image/svg+xml</dc:format>
    <dc:type rdf:resource="http://purl.org/dc/dcmitype/StillImage"/>
   </cc:Work>
  </rdf:RDF>
 </metadata>
 <path id="rect2382-7" d="m2.9375 2c-1.0734 0-1.9375 0.8704-1.9375 1.9516v56.048l4.1475-1.83c10.258-4.561 17.468-9.799 17.468-12.685 0-2.0199-2.0194-5.7494-4.2988-7.898-1.4635-1.3795-2.0396-2.7901-2.3916-5.7939-0.26915-2.2971-0.32296-4.5782 0.24219-4.6961 0.96359-0.20096 0.69654-3.301 0.69629-6.4953-0.000407-5.0911 0.24108-6.1471 1.9072-8.5689 1.0452-1.5192 2.177-2.775 2.543-2.775 0.36598 0 0.48443-0.30654 0.24219-0.70137-0.25205-0.4108 0.02924-0.55108 0.66602-0.30494 0.66787 0.25815 1.294-0.057314 1.5742-0.79285 0.33133-0.86973 0.62294-0.97887 0.99902-0.36593 0.39308 0.64065 1.0139 0.53286 2.4219-0.39642 1.0914-0.7203 2.6847-1.0172 4.5107-1.0063 5.4782 0.032619 13.058 2.9876 15.379 6.7697 1.1662 1.9007 1.4834 3.6313 1.4834 8.1724 0 3.1681-0.05841 6.2122 0.69629 6.4648 0.5477 0.18332 0.51132 2.399 0.24219 4.6961-0.35197 3.0038-0.92815 4.4144-2.3916 5.7939-2.2771 2.1465-4.3291 5.883-4.3291 7.898 0 2.8147 7.6493 8.4647 16.408 12.137l3.785 1.584v-55.255c0-1.0816-0.864-1.952-1.938-1.952h-58.124z" style="opacity:.3"/>
 <path id="rect2382" d="m2.9375 1c-1.0734 0-1.9375 0.8704-1.9375 1.9516v56.048l4.1475-1.83c10.258-4.561 17.468-9.799 17.468-12.685 0-2.0199-2.0194-5.7494-4.2988-7.898-1.4635-1.3795-2.0396-2.7901-2.3916-5.7939-0.26915-2.2971-0.32296-4.5782 0.24219-4.6961 0.96359-0.20096 0.69654-3.301 0.69629-6.4953-0.000407-5.0911 0.24108-6.1471 1.9072-8.5689 1.0452-1.5192 2.177-2.775 2.543-2.775 0.36598 0 0.48443-0.30654 0.24219-0.70137-0.25205-0.4108 0.02924-0.55108 0.66602-0.30494 0.66787 0.25815 1.294-0.057314 1.5742-0.79285 0.33133-0.86973 0.62294-0.97887 0.99902-0.36593 0.39308 0.64065 1.0139 0.53286 2.4219-0.39642 1.0914-0.7203 2.6847-1.0172 4.5107-1.0063 5.4782 0.032619 13.058 2.9876 15.379 6.7697 1.1662 1.9007 1.4834 3.6313 1.4834 8.1724 0 3.1681-0.05841 6.2122 0.69629 6.4648 0.5477 0.18332 0.51132 2.399 0.24219 4.6961-0.35197 3.0038-0.92815 4.4144-2.3916 5.7939-2.2771 2.1465-4.3291 5.883-4.3291 7.898 0 2.8147 7.6493 8.4647 16.408 12.137l3.785 1.584v-55.255c0-1.0816-0.864-1.952-1.938-1.952h-58.124z" style="fill:#dfdbd2"/>
</svg>
