<?xml version="1.0" encoding="UTF-8" standalone="no"?>
<!-- Created with Inkscape (http://www.inkscape.org/) -->
<svg id="svg3172" xmlns:rdf="http://www.w3.org/1999/02/22-rdf-syntax-ns#" xmlns="http://www.w3.org/2000/svg" height="32" width="32" version="1.0" xmlns:cc="http://creativecommons.org/ns#" xmlns:dc="http://purl.org/dc/elements/1.1/">
 <metadata id="metadata9">
  <rdf:RDF>
   <cc:Work rdf:about="">
    <dc:format>image/svg+xml</dc:format>
    <dc:type rdf:resource="http://purl.org/dc/dcmitype/StillImage"/>
   </cc:Work>
  </rdf:RDF>
 </metadata>
 <path id="rect2382-6" d="m2.875 2c-1.0388 0-1.875 0.8404-1.875 1.8843v26.116l1.9922-0.883c4.9638-2.2021 8.4668-4.7306 8.4668-6.1241 0-0.97512-0.97714-2.7608-2.0801-3.7981-0.7081-0.666-1.0016-1.347-1.1719-2.798-0.1302-1.108-0.1562-2.21 0.1172-2.267 0.4663-0.097 0.3517-1.608 0.3516-3.15-0.0002-2.4577 0.102-2.9823 0.9082-4.1514 0.506-0.7334 1.083-1.3249 1.26-1.3249 0.17709 0 0.2051-0.16271 0.08789-0.35331-0.12197-0.19832 0.04344-0.2366 0.35156-0.11777 0.32317 0.12463 0.62614-0.027668 0.76172-0.38276 0.16033-0.41987 0.28677-0.47256 0.46875-0.17666 0.1902 0.30928 0.49058 0.24252 1.1719-0.2061 0.52808-0.34773 1.3137-0.50577 2.1973-0.50053 2.6508 0.015747 6.2893 1.4717 7.4121 3.2976 0.56428 0.91758 0.73242 1.753 0.73242 3.9453 0 1.5294-0.01361 2.999 0.35156 3.1209 0.26502 0.0885 0.21812 1.1582 0.08789 2.2671-0.17031 1.4501-0.43447 2.1311-1.1426 2.7971-1.1018 1.0362-2.0801 2.8253-2.0801 3.7981 0 1.3588 3.672 4.0864 7.9102 5.8591l1.846 0.765v-25.733c0-1.0436-0.836-1.884-1.875-1.884h-26.25z" style="opacity:.3"/>
 <path id="rect2382" d="m2.875 1c-1.0388 0-1.875 0.8404-1.875 1.8843v26.116l1.9922-0.883c4.9638-2.2021 8.4668-4.7306 8.4668-6.1241 0-0.97512-0.97714-2.7608-2.0801-3.7981-0.7081-0.666-1.0016-1.347-1.1719-2.798-0.1302-1.108-0.1562-2.21 0.1172-2.267 0.4663-0.097 0.3517-1.608 0.3516-3.15-0.0002-2.4577 0.102-2.9823 0.9082-4.1514 0.506-0.7334 1.083-1.3249 1.26-1.3249 0.17709 0 0.2051-0.16271 0.08789-0.35331-0.12197-0.19832 0.04344-0.2366 0.35156-0.11777 0.32317 0.12463 0.62614-0.027668 0.76172-0.38276 0.16033-0.41987 0.28677-0.47256 0.46875-0.17666 0.1902 0.30928 0.49058 0.24252 1.1719-0.2061 0.52808-0.34773 1.3137-0.50577 2.1973-0.50053 2.6508 0.015747 6.2893 1.4717 7.4121 3.2976 0.56428 0.91758 0.73242 1.753 0.73242 3.9453 0 1.5294-0.01361 2.999 0.35156 3.1209 0.26502 0.0885 0.21812 1.1582 0.08789 2.2671-0.17031 1.4501-0.43447 2.1311-1.1426 2.7971-1.1018 1.0362-2.0801 2.8253-2.0801 3.7981 0 1.3588 3.672 4.0864 7.9102 5.8591l1.846 0.765v-25.733c0-1.0436-0.836-1.884-1.875-1.884h-26.25z" style="fill:#dfdbd2"/>
</svg>
