<?xml version="1.0" encoding="UTF-8" standalone="no"?>
<!-- Created with Inkscape (http://www.inkscape.org/) -->
<svg id="svg3170" xmlns:rdf="http://www.w3.org/1999/02/22-rdf-syntax-ns#" xmlns="http://www.w3.org/2000/svg" height="48" width="48" version="1.0" xmlns:cc="http://creativecommons.org/ns#" xmlns:dc="http://purl.org/dc/elements/1.1/">
 <metadata id="metadata8">
  <rdf:RDF>
   <cc:Work rdf:about="">
    <dc:format>image/svg+xml</dc:format>
    <dc:type rdf:resource="http://purl.org/dc/dcmitype/StillImage"/>
   </cc:Work>
  </rdf:RDF>
 </metadata>
 <path id="rect2382-4" d="m2.9167 2c-1.0619 0-1.9167 0.8601-1.9167 1.9285v41.072l3.0846-1.356c7.6114-3.381 12.967-7.292 12.967-9.432 0-1.497-1.5133-4.2534-3.2044-5.8458-1.0858-1.0224-1.5357-2.0527-1.7969-4.2789-0.1997-1.7024-0.23962-3.378 0.17969-3.4653 0.71492-0.14893 0.53924-2.4841 0.53906-4.8514-0.000306-3.7731 0.17138-4.5331 1.4076-6.328 0.77547-1.1259 1.6451-2.0491 1.9167-2.0491 0.27153 0 0.32946-0.24978 0.14974-0.5424-0.18701-0.30445 0.03667-0.39335 0.50911-0.21093 0.49552 0.19132 0.96008-0.057542 1.168-0.60266 0.24583-0.64457 0.46967-0.72546 0.7487-0.2712 0.29164 0.4748 0.75222 0.41751 1.7969-0.2712 0.80972-0.53383 1.9993-0.76139 3.3542-0.75333 4.0645 0.024175 9.6585 2.1991 11.38 5.0021 0.86524 1.4086 1.1081 2.6912 1.1081 6.0568 0 2.3479-0.05082 4.6341 0.50911 4.8213 0.40636 0.13586 0.37936 1.7629 0.17969 3.4653-0.26114 2.2262-0.68115 3.2565-1.7669 4.2789-1.6895 1.5908-3.2044 4.3525-3.2044 5.8458 0 2.086 5.6603 6.2884 12.159 9.0098l2.815 1.175v-40.468c0-1.0689-0.855-1.929-1.917-1.929h-42.166z" style="opacity:.3"/>
 <path id="rect2382" d="m2.9167 1c-1.0619 0-1.9167 0.8601-1.9167 1.9285v41.072l3.0846-1.356c7.6114-3.381 12.967-7.292 12.967-9.432 0-1.497-1.5133-4.2534-3.2044-5.8458-1.0858-1.0224-1.5357-2.0527-1.7969-4.2789-0.1997-1.7024-0.23962-3.378 0.17969-3.4653 0.71492-0.14893 0.53924-2.4841 0.53906-4.8514-0.000306-3.7731 0.17138-4.5331 1.4076-6.328 0.77547-1.1259 1.6451-2.0491 1.9167-2.0491 0.27153 0 0.32946-0.24978 0.14974-0.5424-0.18701-0.30445 0.03667-0.39335 0.50911-0.21093 0.49552 0.19132 0.96008-0.057542 1.168-0.60266 0.24583-0.64457 0.46967-0.72546 0.7487-0.2712 0.29164 0.4748 0.75222 0.41751 1.7969-0.2712 0.80972-0.53383 1.9993-0.76139 3.3542-0.75333 4.0645 0.024175 9.6585 2.1991 11.38 5.0021 0.86524 1.4086 1.1081 2.6912 1.1081 6.0568 0 2.3479-0.05082 4.6341 0.50911 4.8213 0.40636 0.13586 0.37936 1.7629 0.17969 3.4653-0.26114 2.2262-0.68115 3.2565-1.7669 4.2789-1.6895 1.5908-3.2044 4.3525-3.2044 5.8458 0 2.086 5.6603 6.2884 12.159 9.0098l2.815 1.175v-40.468c0-1.0689-0.855-1.929-1.917-1.929h-42.166z" style="fill:#dfdbd2"/>
</svg>
