<?xml version="1.0" encoding="UTF-8" standalone="no"?>
<!-- Created with Inkscape (http://www.inkscape.org/) -->
<svg id="svg3171" xmlns:rdf="http://www.w3.org/1999/02/22-rdf-syntax-ns#" xmlns="http://www.w3.org/2000/svg" height="22" width="22" version="1.0" xmlns:cc="http://creativecommons.org/ns#" xmlns:dc="http://purl.org/dc/elements/1.1/">
 <metadata id="metadata9">
  <rdf:RDF>
   <cc:Work rdf:about="">
    <dc:format>image/svg+xml</dc:format>
    <dc:type rdf:resource="http://purl.org/dc/dcmitype/StillImage"/>
   </cc:Work>
  </rdf:RDF>
 </metadata>
 <path id="rect2382-7" d="m10.922 3.0001c-0.589-0.0035-1.1064 0.1088-1.4585 0.3416-0.4542 0.3003-0.6544 0.3384-0.7812 0.1314-0.1213-0.1981-0.2317-0.1759-0.3385 0.1051-0.0904 0.2377-0.2794 0.3462-0.4948 0.2628-0.2055-0.0795-0.2897-0.0539-0.2084 0.0789 0.0782 0.1276 0.04 0.2365-0.0781 0.2365-0.11806 0-0.49617 0.40253-0.83333 0.8935-0.53747 0.78264-0.62514 1.1403-0.625 2.7856 0.0000749 1.0323 0.1025 2.0374-0.20833 2.1023-0.18231 0.038088-0.16495 0.75558-0.078125 1.4979 0.11354 0.97074 0.28313 1.4463 0.75521 1.8921 0.73529 0.69436 1.4062 1.8963 1.4062 2.5491-1e-7 0.93281-2.3418 2.6255-5.651 4.0996l-1.3282 0.579v1.445h20v-1.708l-1.224-0.499c-2.8255-1.1867-5.2865-3.006-5.2865-3.9156 0-0.65119 0.64565-1.8554 1.3802-2.5491 0.47207-0.44581 0.66771-0.92136 0.78125-1.8921 0.08682-0.74234 0.09856-1.4387-0.07813-1.4979-0.24345-0.081632-0.23437-1.0785-0.23437-2.1023-0.000001-1.4675-0.09256-2.0137-0.46875-2.6279-0.749-1.2227-3.181-2.1974-4.948-2.2079z" style="opacity:.3;fill-rule:evenodd"/>
 <path id="rect2382" d="m10.922 2.0001c-0.589-0.0035-1.1064 0.1088-1.4585 0.3416-0.4542 0.3003-0.6544 0.3384-0.7812 0.1314-0.1213-0.1981-0.2317-0.1759-0.3385 0.1051-0.0904 0.2377-0.2794 0.3462-0.4948 0.2628-0.2055-0.0795-0.2897-0.0539-0.2084 0.0789 0.0782 0.1276 0.04 0.2365-0.0781 0.2365-0.11806 0-0.49617 0.40253-0.83333 0.8935-0.53747 0.78264-0.62514 1.1403-0.625 2.7856 0.0000749 1.0323 0.1025 2.0374-0.20833 2.1023-0.18231 0.038088-0.16495 0.75558-0.078125 1.4979 0.11354 0.97074 0.28313 1.4463 0.75521 1.8921 0.73529 0.69436 1.4062 1.8963 1.4062 2.5491-1e-7 0.93281-2.3418 2.6255-5.651 4.0996l-1.3282 0.579v1.445h20v-1.708l-1.224-0.499c-2.8255-1.1867-5.2865-3.006-5.2865-3.9156 0-0.65119 0.64565-1.8554 1.3802-2.5491 0.47207-0.44581 0.66771-0.92136 0.78125-1.8921 0.08682-0.74234 0.09856-1.4387-0.07813-1.4979-0.24345-0.081632-0.23437-1.0785-0.23437-2.1023-0.000001-1.4675-0.09256-2.0137-0.46875-2.6279-0.749-1.2227-3.181-2.1974-4.948-2.2079z" style="fill-rule:evenodd;fill:#dfdbd2"/>
</svg>
