<?xml version="1.0" encoding="UTF-8" standalone="no"?>
<!-- Created with Inkscape (http://www.inkscape.org/) -->
<svg id="svg3178" xmlns:rdf="http://www.w3.org/1999/02/22-rdf-syntax-ns#" xmlns="http://www.w3.org/2000/svg" height="128" width="128" version="1.0" xmlns:cc="http://creativecommons.org/ns#" xmlns:dc="http://purl.org/dc/elements/1.1/">
 <metadata id="metadata9">
  <rdf:RDF>
   <cc:Work rdf:about="">
    <dc:format>image/svg+xml</dc:format>
    <dc:type rdf:resource="http://purl.org/dc/dcmitype/StillImage"/>
   </cc:Work>
  </rdf:RDF>
 </metadata>
 <path id="rect2382-5" d="m4.9375 2c-2.1814 0-3.9375 1.7554-3.9375 3.9359v113.06l8.4287-3.72c20.848-9.2 35.529-19.763 35.529-25.584 0-4.0736-4.1348-11.595-8.7671-15.928-2.9741-2.782-4.1758-5.6267-4.8911-11.685-0.54698-4.6325-0.65634-9.2023 0.49219-9.4399 1.9583-0.40527 1.4463-6.7187 1.4458-13.161-0.000827-10.267 0.45918-12.397 3.8452-17.281 2.1241-3.0638 4.4857-5.5656 5.2295-5.5656 0.74377 0 0.95373-0.64895 0.46143-1.4452-0.51223-0.82847 0.05942-1.0806 1.3535-0.58423 1.3573 0.52062 2.6605-0.11558 3.23-1.5989 0.67335-1.754 1.2352-1.9741 1.9995-0.73798 0.79884 1.292 2.0912 1.1054 4.9526-0.76873 1.9407-1.2711 4.6461-1.9333 7.7827-2.0602 11.202-0.45327 27.695 5.7381 32.607 13.683 2.37 3.8332 2.9839 7.3233 2.9839 16.481 0 6.389-0.08794 12.528 1.4458 13.038 1.1131 0.36969 1.0391 4.8074 0.49219 9.4399-0.71529 6.0579-1.917 8.9026-4.8911 11.685-4.6277 4.3288-8.7671 11.834-8.7671 15.897 0 5.6764 15.545 17.102 33.346 24.507l7.69 3.2v-111.43c0-2.1846-1.76-3.94-3.94-3.94h-118.12z" style="opacity:.3"/>
 <path id="rect2382" d="m4.9375 1c-2.1814 0-3.9375 1.7554-3.9375 3.9359v113.06l8.4287-3.72c20.848-9.2 35.529-19.763 35.529-25.584 0-4.0736-4.1348-11.595-8.7671-15.928-2.9741-2.782-4.1758-5.6267-4.8911-11.685-0.54698-4.6325-0.65634-9.2023 0.49219-9.4399 1.9583-0.40527 1.4463-6.7187 1.4458-13.161-0.000827-10.267 0.45918-12.397 3.8452-17.281 2.1241-3.0638 4.4857-5.5656 5.2295-5.5656 0.74377 0 0.95373-0.64895 0.46143-1.4452-0.51223-0.82847 0.05942-1.0806 1.3535-0.58423 1.3573 0.52062 2.6605-0.11558 3.23-1.5989 0.67335-1.754 1.2352-1.9741 1.9995-0.73798 0.79884 1.292 2.0912 1.1054 4.9526-0.76873 1.9407-1.2711 4.6461-1.9333 7.7827-2.0602 11.202-0.45327 27.695 5.7381 32.607 13.683 2.37 3.8332 2.9839 7.3233 2.9839 16.481 0 6.389-0.08794 12.528 1.4458 13.038 1.1131 0.36969 1.0391 4.8074 0.49219 9.4399-0.71529 6.0579-1.917 8.9026-4.8911 11.685-4.6277 4.3288-8.7671 11.834-8.7671 15.897 0 5.6764 15.545 17.102 33.346 24.507l7.69 3.2v-111.43c0-2.1846-1.76-3.94-3.94-3.94h-118.12z" style="fill:#dfdbd2"/>
</svg>
