<?xml version="1.0" encoding="UTF-8" standalone="no"?>
<!-- Created with Inkscape (http://www.inkscape.org/) -->
<svg id="svg3225" xmlns:rdf="http://www.w3.org/1999/02/22-rdf-syntax-ns#" xmlns="http://www.w3.org/2000/svg" height="16" width="22" version="1.0" xmlns:cc="http://creativecommons.org/ns#" xmlns:dc="http://purl.org/dc/elements/1.1/">
 <metadata id="metadata21">
  <rdf:RDF>
   <cc:Work rdf:about="">
    <dc:format>image/svg+xml</dc:format>
    <dc:type rdf:resource="http://purl.org/dc/dcmitype/StillImage"/>
    <dc:title/>
   </cc:Work>
  </rdf:RDF>
 </metadata>
 <path id="rect2396-7" d="m10 1v3h-6.7812c-1.2312 0-2.2188 0.892-2.2188 2v8c0 1.108 0.98764 2 2.2188 2h15.562c1.231 0 2.219-0.892 2.219-2v-8c0-1.108-0.988-2-2.219-2h-7.781v-2h1v1h4v-1h-3v-1h-3zm-5.5 5c-0.277 0-0.5 0.223-0.5 0.5v1c0 0.277 0.223 0.5 0.5 0.5h1c0.277 0 0.5-0.223 0.5-0.5v-1c0-0.277-0.223-0.5-0.5-0.5h-1zm3 0c-0.277 0-0.5 0.223-0.5 0.5v1c0 0.277 0.223 0.5 0.5 0.5h1c0.277 0 0.5-0.223 0.5-0.5v-1c0-0.277-0.223-0.5-0.5-0.5h-1zm3 0c-0.277 0-0.5 0.223-0.5 0.5v1c0 0.277 0.223 0.5 0.5 0.5h1c0.277 0 0.5-0.223 0.5-0.5v-1c0-0.277-0.223-0.5-0.5-0.5h-1zm3 0c-0.277 0-0.5 0.223-0.5 0.5v1c0 0.277 0.223 0.5 0.5 0.5h1c0.277 0 0.5-0.223 0.5-0.5v-1c0-0.277-0.223-0.5-0.5-0.5h-1zm3 0c-0.277 0-0.5 0.223-0.5 0.5v1c0 0.277 0.223 0.5 0.5 0.5h1c0.277 0 0.5-0.223 0.5-0.5v-1c0-0.277-0.223-0.5-0.5-0.5h-1zm-12 3c-0.277 0-0.5 0.223-0.5 0.5v1c0 0.277 0.223 0.5 0.5 0.5h1c0.277 0 0.5-0.223 0.5-0.5v-1c0-0.277-0.223-0.5-0.5-0.5h-1zm3 0c-0.277 0-0.5 0.223-0.5 0.5v1c0 0.277 0.223 0.5 0.5 0.5h1c0.277 0 0.5-0.223 0.5-0.5v-1c0-0.277-0.223-0.5-0.5-0.5h-1zm3 0c-0.277 0-0.5 0.223-0.5 0.5v1c0 0.277 0.223 0.5 0.5 0.5h1c0.277 0 0.5-0.223 0.5-0.5v-1c0-0.277-0.223-0.5-0.5-0.5h-1zm3 0c-0.277 0-0.5 0.223-0.5 0.5v1c0 0.277 0.223 0.5 0.5 0.5h1c0.277 0 0.5-0.223 0.5-0.5v-1c0-0.277-0.223-0.5-0.5-0.5h-1zm3 0c-0.277 0-0.5 0.223-0.5 0.5v1c0 0.277 0.223 0.5 0.5 0.5h1c0.277 0 0.5-0.223 0.5-0.5v-1c0-0.277-0.223-0.5-0.5-0.5h-1zm-10 3c-0.277 0-0.5 0.223-0.5 0.5v1c0 0.277 0.223 0.5 0.5 0.5h9c0.277 0 0.5-0.223 0.5-0.5v-1c0-0.277-0.223-0.5-0.5-0.5h-9z" style="opacity:.3;fill-rule:evenodd;fill:#fff"/>
 <g id="g3615" style="opacity:.3" transform="translate(0,-2)">
  <rect id="rect2819" style="stroke:#fff;stroke-width:.5;fill:none" rx=".38089" ry=".38089" height="1.611" width="1.6234" y="7.2185" x="4.1457"/>
  <rect id="rect3593" style="stroke:#fff;stroke-width:.5;fill:none" rx=".38089" ry=".38089" height="1.611" width="1.6234" y="7.2185" x="10.146"/>
  <rect id="rect3595" style="stroke:#fff;stroke-width:.5;fill:none" rx=".38089" ry=".38089" height="1.611" width="1.6234" y="7.2185" x="16.146"/>
  <rect id="rect3597" style="stroke:#fff;stroke-width:.5;fill:none" rx=".38089" ry=".38089" height="1.611" width="1.6234" y="10.219" x="4.1457"/>
  <rect id="rect3599" style="stroke:#fff;stroke-width:.5;fill:none" rx=".38089" ry=".38089" height="1.611" width="1.6234" y="10.219" x="10.146"/>
  <rect id="rect3601" style="stroke:#fff;stroke-width:.5;fill:none" rx=".38089" ry=".38089" height="1.611" width="1.6234" y="10.219" x="16.146"/>
  <rect id="rect3603" style="stroke:#fff;stroke-width:.5;fill:none" rx=".38089" ry=".38089" height="1.611" width="1.6234" y="7.2185" x="7.146"/>
  <rect id="rect3605" style="stroke:#fff;stroke-width:.5;fill:none" rx=".38089" ry=".38089" height="1.611" width="1.6234" y="10.219" x="7.146"/>
  <rect id="rect3607" style="stroke:#fff;stroke-width:.5;fill:none" rx=".38089" ry=".38089" height="1.611" width="1.6234" y="7.2185" x="13.146"/>
  <rect id="rect3609" style="stroke:#fff;stroke-width:.5;fill:none" rx=".38089" ry=".38089" height="1.611" width="1.6234" y="10.219" x="13.146"/>
  <rect id="rect3613" style="stroke:#fff;stroke-width:.5;fill:none" rx=".29126" ry=".29126" height="1.5214" width="9.5337" y="13.241" x="6.2442"/>
 </g>
 <path id="rect2396" d="m10 0v3h-6.7812c-1.2312 0-2.2188 0.892-2.2188 2v8c0 1.108 0.98764 2 2.2188 2h15.562c1.231 0 2.219-0.892 2.219-2v-8c0-1.108-0.988-2-2.219-2h-7.781v-2h1v1h4v-1h-3v-1h-3zm-5.5 5c-0.277 0-0.5 0.223-0.5 0.5v1c0 0.277 0.223 0.5 0.5 0.5h1c0.277 0 0.5-0.223 0.5-0.5v-1c0-0.277-0.223-0.5-0.5-0.5h-1zm3 0c-0.277 0-0.5 0.223-0.5 0.5v1c0 0.277 0.223 0.5 0.5 0.5h1c0.277 0 0.5-0.223 0.5-0.5v-1c0-0.277-0.223-0.5-0.5-0.5h-1zm3 0c-0.277 0-0.5 0.223-0.5 0.5v1c0 0.277 0.223 0.5 0.5 0.5h1c0.277 0 0.5-0.223 0.5-0.5v-1c0-0.277-0.223-0.5-0.5-0.5h-1zm3 0c-0.277 0-0.5 0.223-0.5 0.5v1c0 0.277 0.223 0.5 0.5 0.5h1c0.277 0 0.5-0.223 0.5-0.5v-1c0-0.277-0.223-0.5-0.5-0.5h-1zm3 0c-0.277 0-0.5 0.223-0.5 0.5v1c0 0.277 0.223 0.5 0.5 0.5h1c0.277 0 0.5-0.223 0.5-0.5v-1c0-0.277-0.223-0.5-0.5-0.5h-1zm-12 3c-0.277 0-0.5 0.223-0.5 0.5v1c0 0.277 0.223 0.5 0.5 0.5h1c0.277 0 0.5-0.223 0.5-0.5v-1c0-0.277-0.223-0.5-0.5-0.5h-1zm3 0c-0.277 0-0.5 0.223-0.5 0.5v1c0 0.277 0.223 0.5 0.5 0.5h1c0.277 0 0.5-0.223 0.5-0.5v-1c0-0.277-0.223-0.5-0.5-0.5h-1zm3 0c-0.277 0-0.5 0.223-0.5 0.5v1c0 0.277 0.223 0.5 0.5 0.5h1c0.277 0 0.5-0.223 0.5-0.5v-1c0-0.277-0.223-0.5-0.5-0.5h-1zm3 0c-0.277 0-0.5 0.223-0.5 0.5v1c0 0.277 0.223 0.5 0.5 0.5h1c0.277 0 0.5-0.223 0.5-0.5v-1c0-0.277-0.223-0.5-0.5-0.5h-1zm3 0c-0.277 0-0.5 0.223-0.5 0.5v1c0 0.277 0.223 0.5 0.5 0.5h1c0.277 0 0.5-0.223 0.5-0.5v-1c0-0.277-0.223-0.5-0.5-0.5h-1zm-10 3c-0.277 0-0.5 0.223-0.5 0.5v1c0 0.277 0.223 0.5 0.5 0.5h9c0.277 0 0.5-0.223 0.5-0.5v-1c0-0.277-0.223-0.5-0.5-0.5h-9z" style="fill-rule:evenodd;fill:#3c3c3c"/>
</svg>
